<svg width="40" height="40" viewBox="0 0 40 40" fill="none" xmlns="http://www.w3.org/2000/svg">
<g id="message 1">
<path id="Vector" d="M19.9999 38.0166C18.8499 38.0166 17.7666 37.4333 16.9999 36.4166L14.4999 33.0833C14.4499 33.0166 14.2499 32.9333 14.1666 32.9166H13.3333C6.38325 32.9166 2.08325 31.0333 2.08325 21.6666V13.3333C2.08325 5.96659 5.96659 2.08325 13.3333 2.08325H26.6666C34.0333 2.08325 37.9166 5.96659 37.9166 13.3333V21.6666C37.9166 29.0333 34.0333 32.9166 26.6666 32.9166H25.8333C25.6999 32.9166 25.5833 32.9833 25.4999 33.0833L22.9999 36.4166C22.2333 37.4333 21.1499 38.0166 19.9999 38.0166ZM13.3333 4.58325C7.36659 4.58325 4.58325 7.36659 4.58325 13.3333V21.6666C4.58325 29.1999 7.16658 30.4166 13.3333 30.4166H14.1666C15.0166 30.4166 15.9833 30.8999 16.4999 31.5833L18.9999 34.9166C19.5833 35.6833 20.4166 35.6833 20.9999 34.9166L23.4999 31.5833C24.0499 30.8499 24.9166 30.4166 25.8333 30.4166H26.6666C32.6333 30.4166 35.4166 27.6333 35.4166 21.6666V13.3333C35.4166 7.36659 32.6333 4.58325 26.6666 4.58325H13.3333Z" fill="#2B791E"/>
<path id="Vector_2" d="M19.9999 20.0001C19.0666 20.0001 18.3333 19.2501 18.3333 18.3334C18.3333 17.4167 19.0833 16.6667 19.9999 16.6667C20.9166 16.6667 21.6666 17.4167 21.6666 18.3334C21.6666 19.2501 20.9333 20.0001 19.9999 20.0001Z" fill="#2B791E"/>
<path id="Vector_3" d="M26.6667 20.0001C25.7333 20.0001 25 19.2501 25 18.3334C25 17.4167 25.75 16.6667 26.6667 16.6667C27.5833 16.6667 28.3333 17.4167 28.3333 18.3334C28.3333 19.2501 27.6 20.0001 26.6667 20.0001Z" fill="#2B791E"/>
<path id="Vector_4" d="M13.3334 20.0001C12.4001 20.0001 11.6667 19.2501 11.6667 18.3334C11.6667 17.4167 12.4167 16.6667 13.3334 16.6667C14.2501 16.6667 15.0001 17.4167 15.0001 18.3334C15.0001 19.2501 14.2667 20.0001 13.3334 20.0001Z" fill="#2B791E"/>
</g>
</svg>
