<svg width="40" height="40" viewBox="0 0 40 40" fill="none" xmlns="http://www.w3.org/2000/svg">
<g id="security-user 1">
<path id="Vector" d="M20.0006 37.9333C18.1839 37.9333 16.3839 37.3998 14.9673 36.3498L7.80057 30.9998C5.90057 29.5831 4.41724 26.6331 4.41724 24.2664V11.8832C4.41724 9.3165 6.3006 6.58317 8.71727 5.68317L17.0339 2.5665C18.6839 1.94984 21.2839 1.94984 22.9339 2.5665L31.2673 5.68317C33.6839 6.58317 35.5673 9.3165 35.5673 11.8832V24.2664C35.5673 26.6331 34.0839 29.5831 32.1839 30.9998L25.0173 36.3498C23.6173 37.3998 21.8173 37.9333 20.0006 37.9333ZM17.9173 4.89984L9.6006 8.01649C8.16727 8.54982 6.91724 10.3498 6.91724 11.8832V24.2664C6.91724 25.8498 8.03392 28.0664 9.28392 28.9998L16.4506 34.3498C18.3673 35.7831 21.6173 35.7831 23.5339 34.3498L30.7006 28.9998C31.9673 28.0498 33.0673 25.8331 33.0673 24.2664V11.8832C33.0673 10.3665 31.8173 8.56649 30.3839 8.01649L22.0673 4.89984C20.9673 4.48317 19.0339 4.48317 17.9173 4.89984Z" fill="#2B791E"/>
<path id="Vector_2" d="M19.9999 19.4504C19.9666 19.4504 19.9333 19.4504 19.8833 19.4504C17.4666 19.3837 15.7 17.5337 15.7 15.2837C15.7 12.9837 17.5833 11.1003 19.8833 11.1003C22.1833 11.1003 24.0666 12.9837 24.0666 15.2837C24.0499 17.5504 22.2833 19.3836 20.0333 19.4669C20.0166 19.4502 20.0166 19.4504 19.9999 19.4504ZM19.8833 13.6003C18.9499 13.6003 18.1999 14.3504 18.1999 15.2837C18.1999 16.2004 18.9166 16.9336 19.8166 16.9669C19.8166 16.9669 19.8999 16.9669 19.9999 16.9669C20.8833 16.9169 21.5666 16.1837 21.5666 15.2837C21.5833 14.3504 20.8166 13.6003 19.8833 13.6003Z" fill="#2B791E"/>
<path id="Vector_3" d="M20.0013 28.9167C18.5679 28.9167 17.1179 28.5334 16.0013 27.7834C14.8846 27.05 14.2512 25.9667 14.2512 24.8167C14.2512 23.6667 14.8846 22.5834 16.0013 21.8334C18.2513 20.3334 21.7679 20.35 24.0013 21.8334C25.1179 22.5667 25.7513 23.65 25.7513 24.8C25.7513 25.95 25.1179 27.0334 24.0013 27.7834C22.8846 28.5334 21.4346 28.9167 20.0013 28.9167ZM17.3846 23.9C16.9679 24.1667 16.7346 24.5 16.7513 24.8C16.7513 25.1 16.9846 25.4334 17.3846 25.7C18.7846 26.6334 21.2179 26.6334 22.6179 25.7C23.0346 25.4334 23.2679 25.1 23.2679 24.8C23.2679 24.5 23.0346 24.1667 22.6346 23.9C21.2346 22.9834 18.7846 22.9834 17.3846 23.9Z" fill="#2B791E"/>
</g>
</svg>
