<svg width="16" height="16" viewBox="0 0 16 16" fill="none" xmlns="http://www.w3.org/2000/svg">
<path id="Star 1" d="M7.1367 0.840287C7.47983 0.108838 8.52017 0.108838 8.8633 0.840287C9.12672 1.40184 9.84769 1.56639 10.3287 1.17475C10.9552 0.664617 11.8925 1.116 11.8843 1.92389C11.878 2.54413 12.4562 3.0052 13.0594 2.86104C13.8452 2.67326 14.4939 3.48662 14.1359 4.21094C13.8612 4.76702 14.182 5.4333 14.7881 5.56516C15.5776 5.73693 15.8091 6.75118 15.1723 7.24847C14.6835 7.63025 14.6835 8.36975 15.1723 8.75153C15.8091 9.24882 15.5776 10.2631 14.7881 10.4348C14.182 10.5667 13.8612 11.233 14.1359 11.7891C14.4939 12.5134 13.8452 13.3267 13.0594 13.139C12.4562 12.9948 11.878 13.4559 11.8843 14.0761C11.8925 14.884 10.9552 15.3354 10.3287 14.8252C9.84769 14.4336 9.12672 14.5982 8.8633 15.1597C8.52017 15.8912 7.47983 15.8912 7.1367 15.1597C6.87328 14.5982 6.15231 14.4336 5.67132 14.8252C5.04481 15.3354 4.1075 14.884 4.11571 14.0761C4.12202 13.4559 3.54385 12.9948 2.94057 13.139C2.15476 13.3267 1.50612 12.5134 1.86405 11.7891C2.13885 11.233 1.81798 10.5667 1.2119 10.4348C0.422434 10.2631 0.190938 9.24882 0.827694 8.75153C1.31655 8.36975 1.31655 7.63025 0.827694 7.24847C0.190938 6.75118 0.422434 5.73693 1.2119 5.56516C1.81798 5.4333 2.13885 4.76702 1.86405 4.21094C1.50612 3.48662 2.15476 2.67326 2.94057 2.86104C3.54385 3.0052 4.12202 2.54413 4.11571 1.92389C4.1075 1.116 5.04481 0.664617 5.67132 1.17475C6.15231 1.56639 6.87328 1.40184 7.1367 0.840287Z" fill="#2B791E"/>
</svg>
